<svg width="510" height="508" viewBox="0 0 510 508" fill="none" xmlns="http://www.w3.org/2000/svg">
<path d="M133.024 307.858L160.111 288.908C161.79 287.901 162.806 287.653 164.96 288.617L167.143 292.563C168.243 293.684 169.013 293.874 171.021 292.331L358.268 168.995C363.049 165.762 361.528 163.336 357.659 158.84L383.776 139.948C385.603 139.585 387.216 139.72 388.625 139.656M133.024 307.858C128.303 311.284 128.316 314.531 133.937 323.091L235.864 497.381C242.468 507.578 246.944 507.56 255.623 502.312L502.497 334.634C509.62 329.377 510.156 325.378 504.31 316.18L399.718 146.127C396.729 141.086 394.024 139.407 388.625 139.656M133.024 307.858C128.358 309.486 125.533 308.661 120.175 304.549L20.4562 232.047L3.05811 217.802C0.5828 211.183 0.920739 207.79 5.05421 202.394L307.68 6.91465C316.839 0.336291 321.45 -0.458938 328.044 5.69411L391.048 131.357C391.473 132.229 392.542 136.703 388.625 139.656M158.968 318.531L379.785 170.762C385.653 166.689 387.529 167.331 389.543 171.196C392.06 173.815 390.298 175.728 383.242 179.727L169.029 324.044C165.325 326.145 165.144 328.227 167.638 333.3L169.821 337.246C171.547 340.421 173.482 339.71 177.579 336.781L397.609 192.116C400.489 190.098 401.99 191.154 404.579 194.756L417.555 216.4C420.453 220.599 420.538 221.39 417.981 223.509L415.194 225.715C412.986 227.703 411.687 227.239 409.315 225.048L403.979 217.214C401.878 214.075 400.753 213.12 398.887 213.442L188.433 355.495C183.254 359.007 182.718 361.462 186.193 366.841L189.346 370.728C190.772 372.485 192.053 372.368 195.164 370.38L403.014 233.579C406.075 231.502 407.498 230.886 408.771 232.215C409.842 234.039 409.646 234.965 407.075 236.393L397.682 242.052C393.208 244.965 389.656 247.651 391.442 251.599L394.656 256.503C396.846 259.764 399.354 259.042 405.262 254.848L423.077 243.588C426.933 241.478 428.995 240.614 431.744 242.049M429.265 265.639C432.445 262.262 441.884 257.763 438.475 254.475C435.361 251.695 435.403 250.943 432.414 253.22L426.839 257.631C423.768 259.954 421.904 259.234 419.99 257.023C417.836 252.75 416.465 252.638 413.08 255.398L408.414 258.736C404.27 261.206 403.997 262.778 406.901 265.961C408.509 267.262 408.476 268.417 404.296 271.213L397.812 276.697C394.593 279.447 396.236 280.819 398.178 282.791C400.673 285.906 399.455 286.428 396.603 289C393.771 290.437 391.762 288.851 387.389 281.399C383.318 275.71 380.685 274.749 375.57 279.05C371.521 281.775 371.002 285.014 375.331 291.295C379.906 297.912 379.548 300.591 374.122 303.597L365.699 309.198C361.798 311.718 360.119 309.96 357.758 306.617L353.453 299.74C351.21 297.008 350.074 295.887 345.635 299.19L277.342 345.07C271.827 348.609 271.41 350.898 275.041 355.4C279.808 361.055 279.543 364.031 271.954 368.835L215.053 409.956C211.579 412.201 209.613 411.223 206.082 406.417L201.838 400.556C199.375 396.851 199.222 394.657 205.109 390.168L263.161 352.035M389.402 331.219C381.691 316.962 376.354 311.695 358.793 323.881L304.498 359.75C290.289 368.285 288.677 373.133 293.17 381.832L319.243 427.153C327.481 441.778 333.463 441.756 345.79 431.677L400.008 394.509M10.2073 207.182C6.55872 211.048 6.89097 213.335 10.816 217.337L124.902 302.228C128.892 305.029 131.052 305.396 134.721 303.677L383.533 135.884C386.306 134.262 386.472 132.835 385.108 129.674L325.5 11.962C322.91 6.65716 320.534 5.877 314.59 8.53907L10.2073 207.182Z" stroke="white" stroke-width="3"/>
</svg>
